<?xml version="1.0" encoding="UTF-8" standalone="no"?>
<!-- Created with Inkscape (http://www.inkscape.org/) -->

<svg
   width="100"
   height="100"
   viewBox="0 0 26.458333 26.458333"
   version="1.1"
   id="svg1"
   inkscape:version="1.4 (e7c3feb100, 2024-10-09)"
   sodipodi:docname="icon.svg"
   inkscape:export-filename="icon.png"
   inkscape:export-xdpi="96"
   inkscape:export-ydpi="96"
   xmlns:inkscape="http://www.inkscape.org/namespaces/inkscape"
   xmlns:sodipodi="http://sodipodi.sourceforge.net/DTD/sodipodi-0.dtd"
   xmlns="http://www.w3.org/2000/svg"
   xmlns:svg="http://www.w3.org/2000/svg">
  <sodipodi:namedview
     id="namedview1"
     pagecolor="#505050"
     bordercolor="#eeeeee"
     borderopacity="1"
     inkscape:showpageshadow="0"
     inkscape:pageopacity="0"
     inkscape:pagecheckerboard="0"
     inkscape:deskcolor="#505050"
     inkscape:document-units="mm"
     inkscape:zoom="2.2396044"
     inkscape:cx="10.716178"
     inkscape:cy="81.934114"
     inkscape:window-width="1408"
     inkscape:window-height="1413"
     inkscape:window-x="0"
     inkscape:window-y="0"
     inkscape:window-maximized="1"
     inkscape:current-layer="layer1" />
  <defs
     id="defs1">
    <clipPath
       clipPathUnits="userSpaceOnUse"
       id="clipPath5">
      <ellipse
         style="fill:#000000;fill-opacity:1;stroke-width:0.270231;stroke-opacity:0.162872"
         id="circle5"
         cx="19.281792"
         cy="13.178911"
         rx="17.60524"
         ry="10.337203" />
    </clipPath>
    <clipPath
       clipPathUnits="userSpaceOnUse"
       id="clipPath6">
      <circle
         style="fill:#d05845;fill-opacity:1;stroke-width:0.264999;stroke-opacity:0.162872"
         id="circle6"
         cx="13.229166"
         cy="13.229166"
         r="13.229166"
         mask="none" />
    </clipPath>
    <clipPath
       clipPathUnits="userSpaceOnUse"
       id="clipPath7">
      <rect
         style="opacity:1;fill:#000000;fill-opacity:1;stroke-width:0.264999;stroke-opacity:0.162872"
         id="rect7"
         width="13.644988"
         height="22.741648"
         x="10.632457"
         y="1.7130071" />
    </clipPath>
  </defs>
  <g
     inkscape:label="Layer 1"
     inkscape:groupmode="layer"
     id="layer1">
    <circle
       style="opacity:1;fill:#5d8db2;stroke-width:0.264999;stroke-opacity:0.162872;fill-opacity:1"
       id="path1"
       cx="13.229166"
       cy="13.229166"
       r="13.229166"
       mask="none" />
    <path
       style="opacity:1;fill:#da8f3c;fill-opacity:1;stroke-width:0.264999;stroke-opacity:0.162872"
       d="m 6.0426447,10.391485 c 0,0 2.2554848,-3.2579229 6.8499913,-3.4249959 4.594507,-0.167073 7.100601,2.7567038 7.100601,2.7567038 0,0 1.67073,2.3390211 0.835365,5.1792621 -0.835365,2.84024 -3.759142,4.093287 -6.1817,4.51097 -2.422558,0.417682 -7.3512102,-1.253048 -8.5207209,-2.840241 -0.9189012,-4.135056 -0.083536,-6.181699 -0.083536,-6.181699 z"
       id="path6"
       sodipodi:nodetypes="cscsscc" />
    <path
       style="fill:#000000;fill-opacity:1;stroke-width:0.264999;stroke-opacity:0.162872"
       d="m 6.0426447,10.391485 c 0,0 2.2554848,-3.2579227 6.8499913,-3.4249957 4.594507,-0.167073 7.100601,2.7567035 7.100601,2.7567035 0,0 1.67073,2.3390212 0.835365,5.1792622 -0.835365,2.84024 -3.759142,4.093287 -6.1817,4.51097 -2.422558,0.417682 -7.3512102,-1.253048 -8.5207209,-2.840241 -0.9189012,-4.135056 -0.083536,-6.181699 -0.083536,-6.181699 z"
       id="path6-4"
       sodipodi:nodetypes="cscsscc"
       clip-path="url(#clipPath7)" />
  </g>
</svg>
